<?xml version="1.0" encoding="iso-8859-1"?>
<!-- Generator: Adobe Illustrator 19.0.0, SVG Export Plug-In . SVG Version: 6.00 Build 0)  -->
<svg version="1.1" id="Capa_1" xmlns="http://www.w3.org/2000/svg" xmlns:xlink="http://www.w3.org/1999/xlink" x="0px" y="0px"
	 viewBox="0 0 490.667 490.667" style="enable-background:new 0 0 490.667 490.667;" xml:space="preserve">
<g>
	<g>
		<path d="M245.333,0C110.059,0,0,110.059,0,245.333s110.059,245.333,245.333,245.333s245.333-110.059,245.333-245.333
			S380.608,0,245.333,0z M386.219,268.885c-18.283,18.261-50.133,18.261-68.416,0l-19.136-19.136v123.584
			c0,29.397-23.915,53.333-53.333,53.333S192,402.731,192,373.333V249.749l-19.115,19.115c-18.283,18.261-50.133,18.261-68.416,0
			c-9.152-9.131-14.165-21.291-14.165-34.219c0-12.928,5.013-25.067,14.165-34.219L222.72,82.176
			c12.459-12.48,32.789-12.48,45.248,0l118.251,118.251c9.152,9.131,14.165,21.291,14.165,34.219
			C400.384,247.573,395.349,259.733,386.219,268.885z"/>
	</g>
</g>
<g>
</g>
<g>
</g>
<g>
</g>
<g>
</g>
<g>
</g>
<g>
</g>
<g>
</g>
<g>
</g>
<g>
</g>
<g>
</g>
<g>
</g>
<g>
</g>
<g>
</g>
<g>
</g>
<g>
</g>
</svg>
